<svg xmlns="http://www.w3.org/2000/svg" viewBox="0 0 512 512">
  <path fill="#ff9800" d="M320 48H192c-35.35 0-64 28.65-64 64v320c0 35.35 28.65 64 64 64h128c35.35 0 64-28.65 64-64V112c0-35.35-28.65-64-64-64zM368 464c0 8.822-7.178 16-16 16H160c-8.822 0-16-7.178-16-16V112c0-8.822 7.178-16 16-16h192c8.822 0 16 7.178 16 16V464z"/>
  <path fill="#ff5722" d="M232 312c0 4.418-3.582 8-8 8s-8-3.582-8-8c0-4.418 3.582-8 8-8S232 307.6 232 312zM280 312c0 4.418-3.582 8-8 8s-8-3.582-8-8c0-4.418 3.582-8 8-8S280 307.6 280 312zM232 352c0 4.418-3.582 8-8 8s-8-3.582-8-8c0-4.418 3.582-8 8-8S232 347.6 232 352zM280 352c0 4.418-3.582 8-8 8s-8-3.582-8-8c0-4.418 3.582-8 8-8S280 347.6 280 352zM256 272c-4.418 0-8-3.582-8-8s3.582-8 8-8s8 3.582 8 8S260.4 272 256 272zM192 208l-40 112h32l16-48h48l16 48h32l-40-112h-80z"/>
  <circle cx="224" cy="144" r="32" fill="#ff5722"/>
  <circle cx="288" cy="144" r="32" fill="#ff5722"/>
  <path fill="#ff5722" d="M232 168h48v16h-48V168z"/>
</svg>